<svg width="30" height="26" viewBox="0 0 30 26" fill="none" xmlns="http://www.w3.org/2000/svg">
<path d="M29.8385 1.94043L16.7435 25.2697C16.4964 25.7566 16.0821 26 15.5007 26C15.428 26 15.319 25.9861 15.1736 25.9583C14.8538 25.8887 14.5958 25.7322 14.3995 25.4888C14.2033 25.2454 14.1052 24.9707 14.1052 24.6647L14.3995 12.309L1.39084 8.85281C1.07103 8.85281 0.783935 8.75892 0.529545 8.57114C0.275156 8.38336 0.11162 8.13646 0.0389368 7.83044C-0.0337452 7.52442 -0.00467263 7.23231 0.126156 6.95412C0.256985 6.67592 0.467765 6.46727 0.758497 6.32817L27.9633 0.146054C28.1522 0.0486839 28.363 0 28.5956 0C28.9881 0 29.3152 0.132144 29.5768 0.396431C29.7949 0.591169 29.9293 0.831115 29.9802 1.11627C30.0311 1.40142 29.9838 1.67614 29.8385 1.94043Z" fill="white"/>
</svg>
