<svg width="15" height="17" viewBox="0 0 15 17" fill="none" xmlns="http://www.w3.org/2000/svg">
<path d="M7.3641 0C9.92139 0 11.9791 2.01232 11.9791 4.49667V5.77445C13.4144 6.22247 14.4601 7.52178 14.4601 9.07367V13.1878C14.4601 15.109 12.8673 16.6667 10.9037 16.6667H3.8508C1.88627 16.6667 0.29347 15.109 0.29347 13.1878V9.07367C0.29347 7.52178 1.34009 6.22247 2.77454 5.77445V4.49667C2.78301 2.01232 4.84069 0 7.3641 0ZM7.37257 9.4869C6.96612 9.4869 6.63587 9.80986 6.63587 10.2074V12.0458C6.63587 12.4516 6.96612 12.7745 7.37257 12.7745C7.78749 12.7745 8.11774 12.4516 8.11774 12.0458V10.2074C8.11774 9.80986 7.78749 9.4869 7.37257 9.4869ZM7.38104 1.4492C5.66207 1.4492 4.26488 2.80731 4.25641 4.48011V5.59475H10.4972V4.49667C10.4972 2.8156 9.10001 1.4492 7.38104 1.4492Z" fill="white"/>
</svg>
