<svg width="17" height="15" viewBox="0 0 17 15" fill="none" xmlns="http://www.w3.org/2000/svg">
<path d="M12.4926 0C13.6101 0 14.6851 0.441667 15.476 1.23417C16.2676 2.025 16.7101 3.09167 16.7101 4.20833V10.7917C16.7101 13.1167 14.8185 15 12.4926 15H4.26015C1.93431 15 0.0434799 13.1167 0.0434799 10.7917V4.20833C0.0434799 1.88333 1.92598 0 4.26015 0H12.4926ZM13.4351 4.33333C13.2601 4.32417 13.0935 4.38333 12.9676 4.5L9.21015 7.5C8.72681 7.90083 8.03431 7.90083 7.54348 7.5L3.79348 4.5C3.53431 4.30833 3.17598 4.33333 2.96015 4.55833C2.73515 4.78333 2.71015 5.14167 2.90098 5.39167L3.01015 5.5L6.80181 8.45833C7.26848 8.825 7.83431 9.025 8.42681 9.025C9.01765 9.025 9.59348 8.825 10.0593 8.45833L13.8185 5.45L13.8851 5.38333C14.0843 5.14167 14.0843 4.79167 13.876 4.55C13.7601 4.42583 13.601 4.35 13.4351 4.33333Z" fill="white"/>
</svg>
