<svg width="17" height="16" viewBox="0 0 17 16" fill="none" xmlns="http://www.w3.org/2000/svg">
<path d="M3.7925 6.94125C5.0525 9.4175 7.0825 11.4387 9.55875 12.7075L11.4837 10.7825C11.72 10.5463 12.07 10.4675 12.3763 10.5725C13.3562 10.8962 14.415 11.0712 15.5 11.0712C15.9812 11.0712 16.375 11.465 16.375 11.9462V15C16.375 15.4812 15.9812 15.875 15.5 15.875C7.28375 15.875 0.625 9.21625 0.625 1C0.625 0.51875 1.01875 0.125 1.5 0.125H4.5625C5.04375 0.125 5.4375 0.51875 5.4375 1C5.4375 2.09375 5.6125 3.14375 5.93625 4.12375C6.0325 4.43 5.9625 4.77125 5.7175 5.01625L3.7925 6.94125Z" fill="white"/>
</svg>
